:SAMPLES-PER-SECOND 30
:FULLY-SPECIFIED
:DEGREES
110
root  -4.69659 37.6081 0.501482 -25.9241 81.6165 -25.8312
RightUpLeg  15.1431 -0.911973 6.52587
RightLeg  11.6299 16.8525 3.05253
RightFoot  -21.2755 -0.193841 -2.69149
RightToes  5.82075e-010 -1.59028e-015 9.93923e-017
Spine  -0.667356 5.57855 17.4265
Spine1  15.6658 9.56616 -12.3932
HEad  -15.1767 -5.02613 3.46695
LeftShoulder1  9.93923e-017 0 1.22299e-017
LeftArm  -0.425502 59.2 -56.2646
LeftForeArm  0.844845 -2.5474 -5.58874
LeftHand  1.0447 7.59391 -5.5791
RightShoulder  1.98785e-016 -4.96962e-017 1.55301e-017
RightArm  14.582 -4.3508 80.5915
RightForeArm  -33.1555 35.2946 -31.7306
RightHand  1.76362 -12.6887 -10.4403
LeftUpLeg  -29.789 2.63576 -1.11581
LeftLeg  9.91703 -4.2345 -1.1207
LeftFoot  8.87255 -0.443376 2.32038
LeftToes  1.8463e-010 2.29954e-012 -3.51709e-011
111
root  -3.11227 37.3549 0.53265 -17.4981 81.2529 -18.2434
RightUpLeg  15.3659 -2.20463 4.1541
RightLeg  14.6234 20.0632 4.01435
RightFoot  -20.2334 -0.206981 -3.40383
RightToes  5.82075e-010 -1.59028e-015 9.93923e-017
Spine  -0.323636 5.33062 15.9012
Spine1  14.8353 9.43595 -13.0863
HEad  -16.9926 -4.20402 3.94607
LeftShoulder1  9.93923e-017 0 1.22299e-017
LeftArm  -4.39341 57.4512 -58.7818
LeftForeArm  1.21357 -1.94713 -5.41454
LeftHand  1.04378 7.57294 -5.3647
RightShoulder  1.98785e-016 -4.96962e-017 1.55301e-017
RightArm  15.364 -7.16221 82.659
RightForeArm  -33.7948 34.1231 -30.6957
RightHand  1.72429 -12.4944 -10.391
LeftUpLeg  -31.5179 1.88703 -2.21832
LeftLeg  15.5527 -3.46492 1.05
LeftFoot  10.1365 -0.668042 3.35928
LeftToes  1.8463e-010 2.29954e-012 -3.51709e-011
112
root  -1.55198 37.225 0.559827 -7.41254 81.3489 -8.56976
RightUpLeg  15.132 -3.73571 1.22897
RightLeg  18.9303 22.8096 5.45367
RightFoot  -17.1435 -0.050596 -1.96661
RightToes  5.82075e-010 -1.59028e-015 9.93923e-017
Spine  0.458743 4.74226 13.2925
Spine1  14.1596 8.87899 -13.3678
HEad  -18.7129 -3.43774 4.45903
LeftShoulder1  9.93923e-017 0 1.22299e-017
LeftArm  -9.03927 54.3837 -62.604
LeftForeArm  1.81143 -1.73777 -5.16438
LeftHand  1.05366 7.6991 -5.78067
RightShoulder  1.98785e-016 -4.96962e-017 1.55301e-017
RightArm  17.4556 -10.5547 85.084
RightForeArm  -34.977 31.4034 -28.4421
RightHand  1.66586 -12.1644 -10.4608
LeftUpLeg  -32.2965 -0.786593 -3.01854
LeftLeg  20.9297 -1.12852 3.26773
LeftFoot  7.52975 -0.622224 3.4756
LeftToes  1.8463e-010 2.29954e-012 -3.51709e-011
113
root  -0.0754981 37.2364 0.574901 1.82965 81.7029 0.588257
RightUpLeg  13.5444 -3.72338 -0.928042
RightLeg  25.4087 23.3248 7.26004
RightFoot  -10.5337 -0.0592781 2.86016
RightToes  5.82075e-010 -1.59028e-015 9.93923e-017
Spine  1.50163 3.95236 10.4507
Spine1  13.6619 7.99105 -13.3115
HEad  -19.4761 -2.71959 4.56623
LeftShoulder1  9.93923e-017 0 1.22299e-017
LeftArm  -13.6128 49.8628 -67.0463
LeftForeArm  2.44222 -1.64097 -4.98771
LeftHand  1.08176 8.10968 -6.74012
RightShoulder  1.98785e-016 -4.96962e-017 1.55301e-017
RightArm  21.967 -14.2868 87.554
RightForeArm  -38.8067 26.9282 -24.9779
RightHand  1.63608 -12.041 -10.3282
LeftUpLeg  -31.7047 -3.44225 -4.08361
LeftLeg  24.4664 0.521856 4.93724
LeftFoot  3.48567 -0.585524 4.0209
LeftToes  1.8463e-010 2.29954e-012 -3.51709e-011
